<svg xmlns="http://www.w3.org/2000/svg" xmlns:xlink="http://www.w3.org/1999/xlink" version="1.1" x="0px" y="0px" viewBox="0 0 100 100" enable-background="new 0 0 100 100" xml:space="preserve"><path d="M97.5,93.636h-95c-0.893,0-1.718-0.477-2.165-1.25s-0.447-1.727,0-2.5l47.5-82.272c0.447-0.773,1.272-1.25,2.165-1.25  s1.719,0.477,2.165,1.25l47.5,82.272c0.446,0.773,0.446,1.727,0,2.5S98.394,93.636,97.5,93.636z M6.83,88.636h86.34L50,13.864  L6.83,88.636z"/><path d="M77.5,82.315h-55c-0.893,0-1.718-0.477-2.165-1.25s-0.447-1.727,0-2.5l27.5-47.631c0.447-0.773,1.272-1.25,2.165-1.25  s1.719,0.477,2.165,1.25l27.5,47.631c0.446,0.773,0.446,1.727,0,2.5S78.394,82.315,77.5,82.315z M26.83,77.315h46.34L50,37.184  L26.83,77.315z"/></svg>
