<svg xmlns="http://www.w3.org/2000/svg" xmlns:xlink="http://www.w3.org/1999/xlink" version="1.1" x="0px" y="0px" viewBox="0 0 100 100" style="enable-background:new 0 0 100 100;" xml:space="preserve"><style type="text/css">
	.st0{fill:none;}
	.st1{fill:none;stroke:#000000;stroke-width:0;stroke-linecap:round;stroke-linejoin:round;}
	.st2{fill:#FFFFFF;}
	.st3{fill:#231F20;}
</style><g><path class="st0" d="M91.9,47.7l0-0.3c0-0.4,0.3-11-13-19.6c-1.4-0.5-10.4-3.6-26.3-3.3c-1.7,6.3-6.4,26.6,0,45.3   c5,0.8,20.4,2.7,29.9-4.1C93.5,57.7,92,48.1,92,48L91.9,47.7z"/><path d="M97.9,47.3c0-2.3-0.5-15-16-24.8l-0.4-0.2c-0.4-0.2-11.1-4.6-31.2-3.8l-2.1,0.1l-0.7,1.9c-0.4,1.1-9.3,28.1,0,52.8l0.6,1.5   l1.6,0.4c0.5,0.1,6.1,1.3,13.3,1.3c7.3,0,16.2-1.2,23-6.1C98.9,61.1,98.2,49.5,97.9,47.3z M82.5,65.5c-9.5,6.8-24.9,5-29.9,4.1   c-6.4-18.7-1.7-39,0-45.3C68.5,24,77.5,27.1,79,27.7c13.3,8.7,13,19.2,13,19.6l0,0.3L92,48C92,48.1,93.5,57.7,82.5,65.5z"/><path d="M35.8,19.7H5.3c-1.6,0-3,1.3-3,3c0,1.6,1.3,3,3,3h30.4c1.6,0,3-1.3,3-3C38.7,21,37.4,19.7,35.8,19.7z"/><path d="M35.8,35.4H5.3c-1.6,0-3,1.3-3,3c0,1.6,1.3,3,3,3h30.4c1.6,0,3-1.3,3-3C38.7,36.7,37.4,35.4,35.8,35.4z"/><path d="M35.8,51.1H5.3c-1.6,0-3,1.3-3,3s1.3,3,3,3h30.4c1.6,0,3-1.3,3-3S37.4,51.1,35.8,51.1z"/><path d="M35.8,68.2H5.3c-1.6,0-3,1.3-3,3c0,1.6,1.3,3,3,3h30.4c1.6,0,3-1.3,3-3C38.7,69.6,37.4,68.2,35.8,68.2z"/></g></svg>
