<svg xmlns="http://www.w3.org/2000/svg" xmlns:xlink="http://www.w3.org/1999/xlink" version="1.1" x="0px" y="0px" viewBox="0 0 100 100" style="enable-background:new 0 0 100 100;" xml:space="preserve"><style type="text/css">
	.st0{fill:none;}
	.st1{fill:none;stroke:#000000;stroke-width:0;stroke-linecap:round;stroke-linejoin:round;}
	.st2{fill:#FFFFFF;}
	.st3{fill:#231F20;}
</style><g><path class="st0" d="M90.5,48.5l0-0.4c0-0.4,0.3-10.5-12.5-18.8c-1.5-0.6-10.2-3.4-25.3-3.2c-1.8,6.7-5.9,25.9,0,43.6   c5.2,0.8,19.8,2.4,28.8-4.1C92,58.1,90.6,49,90.6,48.9L90.5,48.5z"/><path d="M97.9,48.1c0-2.5-0.7-15.3-16.2-25.3l-0.6-0.3c-0.4-0.2-11.1-4.6-31.3-3.8l-2.5,0.1l-0.8,2.4c-0.4,1.1-9.3,28.2,0,53   l0.7,1.9l2,0.4c0.5,0.1,6.1,1.3,13.3,1.3c7.4,0,16.4-1.3,23.3-6.2C98.8,62.3,98.2,50.5,97.9,48.1z M81.5,65.6   c-8.9,6.4-23.5,4.9-28.8,4.1c-5.9-17.8-1.8-37,0-43.6c15.1-0.2,23.7,2.6,25.3,3.2c12.8,8.3,12.5,18.4,12.5,18.8l0,0.4l0.1,0.4   C90.6,49,92,58.1,81.5,65.6z"/><path d="M5.5,40.6c0.5,0,1-0.1,1.5-0.3L36.9,27c1.9-0.8,2.7-3,1.9-4.9c-0.8-1.9-3-2.7-4.9-1.9L4,33.6c-1.9,0.8-2.7,3-1.9,4.9   C2.8,39.8,4.1,40.6,5.5,40.6z"/><path d="M5.5,56.2c0.5,0,1-0.1,1.5-0.3l29.9-13.3c1.9-0.8,2.7-3,1.9-4.9c-0.8-1.9-3-2.7-4.9-1.9L4,49.1c-1.9,0.8-2.7,3-1.9,4.9   C2.8,55.4,4.1,56.2,5.5,56.2z"/><path d="M34.1,51.4L4.2,64.7c-1.9,0.8-2.7,3-1.9,4.9c0.6,1.4,2,2.2,3.4,2.2c0.5,0,1-0.1,1.5-0.3l29.9-13.3c1.9-0.8,2.7-3,1.9-4.9   C38.2,51.4,36,50.6,34.1,51.4z"/><path d="M33.9,68.5L4,81.8c-1.9,0.8-2.7,3-1.9,4.9c0.6,1.4,2,2.2,3.4,2.2c0.5,0,1-0.1,1.5-0.3l29.9-13.3c1.9-0.8,2.7-3,1.9-4.9   C38,68.5,35.8,67.7,33.9,68.5z"/></g></svg>
