<svg xmlns="http://www.w3.org/2000/svg" xmlns:xlink="http://www.w3.org/1999/xlink" version="1.1" x="0px" y="0px" viewBox="0 0 100 100" style="enable-background:new 0 0 100 100;" xml:space="preserve"><style type="text/css">
	.st0{fill:none;}
	.st1{fill:none;stroke:#000000;stroke-width:0;stroke-linecap:round;stroke-linejoin:round;}
	.st2{fill:#FFFFFF;}
	.st3{fill:#231F20;}
</style><g><path class="st0" d="M52.5,37.8H46v7.4h6.2c2.5,0,3.7-1.3,3.7-3.8C56,39,54.8,37.8,52.5,37.8z"/><path class="st0" d="M49.6,14.6c-18.6,0-33.7,15.1-33.7,33.7S31,81.9,49.6,81.9s33.7-15.1,33.7-33.7S68.2,14.6,49.6,14.6z    M61.6,50.1c-1.8,2.2-4.3,3.4-7.3,3.4h-8.2v13.9h-8.5V29h15.2c2.9,0,5.1,0.5,6.7,1.4c1.5,0.9,2.7,2.4,3.6,4.3s1.3,4.1,1.3,6.5   C64.3,44.9,63.4,47.9,61.6,50.1z"/><path d="M49.6,9.4c-21.4,0-38.8,17.4-38.8,38.8s17.4,38.8,38.8,38.8s38.8-17.4,38.8-38.8S71,9.4,49.6,9.4z M49.6,81.9   c-18.6,0-33.7-15.1-33.7-33.7S31,14.6,49.6,14.6s33.7,15.1,33.7,33.7S68.2,81.9,49.6,81.9z"/><path d="M16.8,19.4l-4-3.2C12.5,16.6-13.6,50,13.7,84l4-3.2C-7,50,15.8,20.7,16.8,19.4z"/><path d="M86,15l-3.8,3.4c11,12.3,14.1,26.4,9.2,42c-3.8,11.9-11,20.2-11.1,20.3l3.9,3.4C84.4,83.8,115.5,47.8,86,15z"/><path d="M59.4,30.5c-1.5-0.9-3.7-1.4-6.7-1.4H37.6v38.4h8.5V53.5h8.2c3,0,5.5-1.1,7.3-3.4c1.8-2.2,2.7-5.2,2.7-8.9   c0-2.4-0.4-4.6-1.3-6.5S60.9,31.4,59.4,30.5z M52.2,45.2H46v-7.4h6.5c2.3,0,3.4,1.2,3.4,3.6C56,44,54.7,45.2,52.2,45.2z"/></g></svg>
