<svg xmlns="http://www.w3.org/2000/svg" xmlns:xlink="http://www.w3.org/1999/xlink" version="1.1" x="0px" y="0px" viewBox="0 0 100 100" enable-background="new 0 0 100 100" xml:space="preserve"><path d="M47.6728592,62.9619904c-3.8594971,0-7.0573654,2.8670502-7.6087227,6.6162796h-3.5286827  c-0.5513573-3.7492294-3.7492218-6.6162796-7.608717-6.6162796c-4.1903095,0-7.7189903,3.4184113-7.7189903,7.7189941  c0,4.1903076,3.4184093,7.7189865,7.7189903,7.7189865c3.8594952,0,7.0573597-2.8670502,7.608717-6.6162796h3.5286827  c0.5513573,3.7492294,3.7492256,6.6162796,7.6087227,6.6162796c4.1903076,0,7.7189865-3.4184113,7.7189865-7.7189865  C55.3918457,66.3804016,51.8631668,62.9619904,47.6728592,62.9619904z M28.9267368,76.0842743  c-2.9773254,0-5.5135651-2.4259644-5.5135651-5.5135651c0-2.9773254,2.4259701-5.5135651,5.5135651-5.5135651  c2.9773254,0,5.5135632,2.425972,5.5135632,5.5135651C34.3300285,73.6583023,31.9040623,76.0842743,28.9267368,76.0842743z   M47.6728592,76.0842743c-2.9773293,0-5.5135651-2.4259644-5.5135651-5.5135651  c0-2.9773254,2.4259682-5.5135651,5.5135651-5.5135651c2.9773254,0,5.5135612,2.425972,5.5135612,5.5135651  S50.650177,76.0842743,47.6728592,76.0842743z M20.6563892,64.0647049c0,0.6616287-0.4410839,1.1027145-1.1027126,1.1027145  h-9.3730593c-0.6616278,0-1.1027126-0.4410858-1.1027126-1.1027145c0-0.6616249,0.4410849-1.1027145,1.1027126-1.1027145h9.3730593  C20.2153053,62.9619904,20.6563892,63.4030724,20.6563892,64.0647049z M97.9565659,21.4999847H2.9027128  C2.2410851,21.4999847,1.8,21.9410686,1.8,22.6026974v35.3970795c0,0.6616249,0.4410851,1.1027145,1.1027129,1.1027145h81.3802185  v3.7492256h-28.229454c-0.6616287,0-1.1027145,0.4410858-1.1027145,1.1027107c0,0.6616287,0.4410858,1.1027145,1.1027145,1.1027145  h28.2294464v10.3655014c0,0.6616211,0.4410858,1.1027069,1.1027145,1.1027069s1.1027145-0.4410858,1.1027145-1.1027069V59.1024971  h11.4682159c0.6616211,0,1.1027069-0.4410858,1.1027069-1.1027145V22.6026974  C99.0592728,22.051342,98.618187,21.4999847,97.9565659,21.4999847z M96.8538513,56.8970718H4.0054259V23.70541h92.8484268  V56.8970718z"/></svg>
